<?xml version="1.0" encoding="utf-8"?>
<!-- Generator: Adobe Illustrator 19.0.1, SVG Export Plug-In . SVG Version: 6.00 Build 0)  -->
<svg version="1.1" id="Слой_1" xmlns="http://www.w3.org/2000/svg" xmlns:xlink="http://www.w3.org/1999/xlink" x="0px" y="0px"
	 viewBox="-741 1749.3 415.4 502.7" style="enable-background:new -741 1749.3 415.4 502.7;" xml:space="preserve">
<style type="text/css">
	.st0{fill:#3C3C3B;}
	.st1{fill:#E2E2E2;}
	.st2{fill:#DADADA;stroke:#DADADA;stroke-miterlimit:10;}
	.st3{fill:#F6F6F6;}
	.st4{fill:#D3D3D3;}
	.st5{fill:#D8D7D6;}
	.st6{fill:#B2B2B2;}
	.st7{fill:#C6C6C6;}
	.st8{fill:#DADADA;}
	.st9{fill:#9D9D9C;}
	.st10{fill:#1D1D1B;}
	.st11{fill:none;stroke:#A3A3A3;stroke-miterlimit:10;}
	.st12{fill:#6D5F5A;stroke:#5E4F48;stroke-width:4;stroke-miterlimit:10;}
	.st13{fill:#5E4F48;}
	.st14{fill:#FCE5D6;stroke:#707070;stroke-miterlimit:10;}
	.st15{fill:none;stroke:#707070;stroke-width:5;stroke-miterlimit:10;}
</style>
<g>
	<g>
		<path class="st0" d="M-669.4,1811.8v286c5.6,5.4,11.6,10.4,17.8,15v-316C-657.9,1801.5-663.8,1806.5-669.4,1811.8z"/>
		<path class="st0" d="M-630.7,1783.1v343.6c5.8,3.3,11.7,6.2,17.8,8.9v-361.5C-619,1776.8-624.9,1779.8-630.7,1783.1z"/>
		<path class="st0" d="M-415,1796.8v316.1c6.2-4.7,12.2-9.7,17.8-15v-286C-402.8,1806.5-408.7,1801.5-415,1796.8z"/>
		<path class="st0" d="M-453.7,1774.1v361.4c6.1-2.7,12-5.7,17.8-8.9v-343.5C-441.7,1779.8-447.6,1776.8-453.7,1774.1z"/>
	</g>
	<g>
		<path class="st1" d="M-445.2,2224.1c1.5-1.1,3-2.1,4-2.9c2.5-2,7.4-6.1,9.6-8.5c1.6-1.8,4.4-5.8,5.8-7.9c1.2-1.7,3.3-5.2,4.4-7
			c6-9.4,24.3-37.5,24.3-37.5h-17.8l-14.3,21.6c-0.1,0.5,0.2,1.6,0.2,2.1c0,2.1-0.1,6.3-0.4,8.4c-0.5,3.5-2.3,10.5-3.6,13.8
			c-1.2,3-4.6,8.5-6.4,11.1C-440.7,2219.2-445.2,2224.1-445.2,2224.1z"/>
		<path class="st2" d="M-445.2,2224.1c1.4-0.9,4.9-5.3,5.7-6.6c1.7-2.7,5.2-8.2,6.4-11.1c1.4-3.3,3.1-10.3,3.6-13.8
			c0.3-2.1,0.5-6.3,0.4-8.4c-0.1-2.1-0.7-6.3-1.2-8.4c-1-3.9-5.4-15.3-5.4-15.3h-16.6c0,0,3,5.4,3.8,7.3c1.1,2.7,3,8.2,3.5,11.1
			c0.5,2.6,0.5,7.9,0.4,10.5c-0.1,2.2-0.7,6.5-1.2,8.7c-0.4,1.8-1.4,5.3-2.2,6.9c-1.2,2.4-4.2,6.9-6,8.9c-1.2,1.3-3.8,3.8-5.3,4.6
			c-1.1,0.6-4.9,1.4-4.9,1.4l0.6,3.6v10.1c0,0,8.2-3.3,10.8-4.7C-450.7,2227.8-447.8,2225.9-445.2,2224.1z"/>
		<path class="st3" d="M-533.3,2185.6c-12.2-0.2-14.2,5.2-14.2,8v5.6h14.2h14.2v-5.6C-519.1,2190.8-521.1,2185.4-533.3,2185.6z"/>
		<polygon class="st4" points="-533.3,2225.9 -567.6,2225.9 -567.6,2234.7 -533.3,2234.7 -499,2234.7 -499,2225.9 		"/>
		<polygon class="st5" points="-501.9,2208.4 -533.3,2208.4 -564.7,2208.4 -567.6,2225.9 -533.3,2225.9 -499,2225.9 		"/>
		<polygon class="st6" points="-463.4,2234.7 -463.4,2223.5 -464.7,2216.2 -487,2216.2 -487,2211.9 -501.3,2211.9 -499,2225.9 
			-499,2234.7 		"/>
		<path class="st1" d="M-621.4,2224.1c-1.5-1.1-3-2.1-4-2.9c-2.5-2-7.4-6.1-9.6-8.5c-1.6-1.8-4.4-5.8-5.8-7.9
			c-1.2-1.7-3.3-5.2-4.4-7c-6-9.4-24.3-37.5-24.3-37.5h17.8l14.3,21.6c0.1,0.5-0.2,1.6-0.2,2.1c0,2.1,0.1,6.3,0.4,8.4
			c0.5,3.5,2.3,10.5,3.6,13.8c1.2,3,4.6,8.5,6.4,11.1C-625.9,2219.2-621.4,2224.1-621.4,2224.1z"/>
		<path class="st2" d="M-621.4,2224.1c-1.4-0.9-4.9-5.3-5.7-6.6c-1.7-2.7-5.2-8.2-6.4-11.1c-1.4-3.3-3.1-10.3-3.6-13.8
			c-0.3-2.1-0.5-6.3-0.4-8.4c0.1-2.1,0.7-6.3,1.2-8.4c1-3.9,5.4-15.3,5.4-15.3h16.6c0,0-3,5.4-3.8,7.3c-1.1,2.7-3,8.2-3.5,11.1
			c-0.5,2.6-0.5,7.9-0.4,10.5c0.1,2.2,0.7,6.5,1.2,8.7c0.4,1.8,1.4,5.3,2.2,6.9c1.2,2.4,4.2,6.9,6,8.9c1.2,1.3,3.8,3.8,5.3,4.6
			c1.1,0.6,4.9,1.4,4.9,1.4l-0.6,3.6v10.1c0,0-8.2-3.3-10.8-4.7C-615.9,2227.8-618.8,2225.9-621.4,2224.1z"/>
		<polygon class="st6" points="-603.2,2234.7 -603.2,2223.5 -601.9,2216.2 -579.6,2216.2 -579.6,2211.9 -565.3,2211.9 
			-567.6,2225.9 -567.6,2234.7 		"/>
		<polygon class="st7" points="-533.3,2234.7 -605.3,2234.7 -605.3,2251.5 -533.3,2251.5 -461.3,2251.5 -461.3,2234.7 		"/>
		<rect x="-593.1" y="2234.7" class="st8" width="10.1" height="16.8"/>
		<path class="st9" d="M-542,2234.7h-8.7c0,1.8,3.5,3.4,8.7,4.3c0.5,0.1,1,0.2,1.6,0.2v-4.5H-542z"/>
		<rect x="-483.6" y="2234.7" class="st8" width="10.1" height="16.8"/>
		<path class="st9" d="M-524.6,2234.7h8.7c0,1.8-3.5,3.4-8.7,4.3c-0.5,0.1-1,0.2-1.6,0.2v-4.5H-524.6z"/>
		<path class="st8" d="M-533.3,2234.7h-7.1v4.5c2.2,0.3,4.6,0.4,7.1,0.4s4.9-0.2,7.1-0.4v-4.5H-533.3z"/>
		<polygon class="st3" points="-533.3,2199.2 -540.4,2199.2 -540.4,2225.9 -533.3,2225.9 -526.2,2225.9 -526.2,2199.2 		"/>
		<g>
			<path class="st10" d="M-525.7,2204.2H-541c-1.4,0-2.5-1.1-2.5-2.5l0,0c0-1.4,1.1-2.5,2.5-2.5h15.3c1.4,0,2.5,1.1,2.5,2.5l0,0
				C-523.2,2203.1-524.3,2204.2-525.7,2204.2z"/>
			<path class="st10" d="M-525.7,2225.9H-541c-1.4,0-2.5-1.1-2.5-2.5l0,0c0-1.4,1.1-2.5,2.5-2.5h15.3c1.4,0,2.5,1.1,2.5,2.5l0,0
				C-523.2,2224.8-524.3,2225.9-525.7,2225.9z"/>
			<path class="st10" d="M-525.5,2210l-14,3.2c-1.4,0.3-2.7-0.5-3-1.9l0,0c-0.3-1.4,0.5-2.7,1.9-3l14-3.2c1.4-0.3,2.7,0.5,3,1.9l0,0
				C-523.3,2208.3-524.2,2209.7-525.5,2210z"/>
			<path class="st10" d="M-525.5,2217.3l-14,3.2c-1.4,0.3-2.7-0.5-3-1.9l0,0c-0.3-1.4,0.5-2.7,1.9-3l14-3.2c1.4-0.3,2.7,0.5,3,1.9
				l0,0C-523.3,2215.6-524.2,2217-525.5,2217.3z"/>
		</g>
	</g>
	<g>
		<line class="st11" x1="-730.6" y1="2106.5" x2="-336.1" y2="2106.5"/>
		<line class="st11" x1="-730.6" y1="2103.3" x2="-336.1" y2="2103.3"/>
		<line class="st11" x1="-730.6" y1="2100.1" x2="-336.1" y2="2100.1"/>
		<line class="st11" x1="-730.6" y1="2096.9" x2="-336.1" y2="2096.9"/>
		<line class="st11" x1="-730.6" y1="2093.7" x2="-336.1" y2="2093.7"/>
		<line class="st11" x1="-730.6" y1="2090.5" x2="-336.1" y2="2090.5"/>
		<line class="st11" x1="-730.6" y1="2087.3" x2="-336.1" y2="2087.3"/>
		<line class="st11" x1="-730.6" y1="2084.1" x2="-336.1" y2="2084.1"/>
		<line class="st11" x1="-730.6" y1="2080.9" x2="-336.1" y2="2080.9"/>
		<line class="st11" x1="-730.6" y1="2077.7" x2="-336.1" y2="2077.7"/>
		<line class="st11" x1="-730.6" y1="2074.5" x2="-336.1" y2="2074.5"/>
		<line class="st11" x1="-730.6" y1="2071.3" x2="-336.1" y2="2071.3"/>
		<line class="st11" x1="-730.6" y1="2068.1" x2="-336.1" y2="2068.1"/>
		<line class="st11" x1="-730.6" y1="2064.9" x2="-336.1" y2="2064.9"/>
		<line class="st11" x1="-730.6" y1="2061.7" x2="-336.1" y2="2061.7"/>
		<line class="st11" x1="-730.6" y1="2058.5" x2="-336.1" y2="2058.5"/>
		<line class="st11" x1="-730.6" y1="2055.3" x2="-336.1" y2="2055.3"/>
		<line class="st11" x1="-730.6" y1="2052.1" x2="-336.1" y2="2052.1"/>
		<line class="st11" x1="-730.6" y1="2048.9" x2="-336.1" y2="2048.9"/>
		<line class="st11" x1="-730.6" y1="2045.6" x2="-336.1" y2="2045.6"/>
		<line class="st11" x1="-730.6" y1="2042.4" x2="-336.1" y2="2042.4"/>
		<line class="st11" x1="-730.6" y1="2039.2" x2="-336.1" y2="2039.2"/>
		<line class="st11" x1="-730.6" y1="2036" x2="-336.1" y2="2036"/>
		<line class="st11" x1="-730.6" y1="2032.8" x2="-336.1" y2="2032.8"/>
		<line class="st11" x1="-730.6" y1="2029.6" x2="-336.1" y2="2029.6"/>
		<line class="st11" x1="-730.6" y1="2026.4" x2="-336.1" y2="2026.4"/>
		<line class="st11" x1="-730.6" y1="2023.2" x2="-336.1" y2="2023.2"/>
		<line class="st11" x1="-730.6" y1="2020" x2="-336.1" y2="2020"/>
		<line class="st11" x1="-730.6" y1="2016.8" x2="-336.1" y2="2016.8"/>
		<line class="st11" x1="-730.6" y1="2013.6" x2="-336.1" y2="2013.6"/>
		<line class="st11" x1="-730.6" y1="2010.4" x2="-336.1" y2="2010.4"/>
		<line class="st11" x1="-730.6" y1="2007.2" x2="-336.1" y2="2007.2"/>
		<line class="st11" x1="-730.6" y1="2004" x2="-336.1" y2="2004"/>
		<line class="st11" x1="-730.6" y1="2000.8" x2="-336.1" y2="2000.8"/>
		<line class="st11" x1="-730.6" y1="1997.6" x2="-336.1" y2="1997.6"/>
		<line class="st11" x1="-730.6" y1="1994.4" x2="-336.1" y2="1994.4"/>
		<line class="st11" x1="-730.6" y1="1991.2" x2="-336.1" y2="1991.2"/>
		<line class="st11" x1="-730.6" y1="1988" x2="-336.1" y2="1988"/>
		<line class="st11" x1="-730.6" y1="1984.8" x2="-336.1" y2="1984.8"/>
		<line class="st11" x1="-730.6" y1="1981.6" x2="-336.1" y2="1981.6"/>
		<line class="st11" x1="-730.6" y1="1978.4" x2="-336.1" y2="1978.4"/>
		<line class="st11" x1="-730.6" y1="1975.2" x2="-336.1" y2="1975.2"/>
		<line class="st11" x1="-730.6" y1="1971.9" x2="-336.1" y2="1971.9"/>
		<line class="st11" x1="-730.6" y1="1968.7" x2="-336.1" y2="1968.7"/>
		<line class="st11" x1="-730.6" y1="1965.5" x2="-336.1" y2="1965.5"/>
		<line class="st11" x1="-730.6" y1="1962.3" x2="-336.1" y2="1962.3"/>
		<line class="st11" x1="-730.6" y1="1959.1" x2="-336.1" y2="1959.1"/>
		<line class="st11" x1="-730.6" y1="1955.9" x2="-336.1" y2="1955.9"/>
		<line class="st11" x1="-730.6" y1="1952.7" x2="-336.1" y2="1952.7"/>
		<line class="st11" x1="-730.6" y1="1949.5" x2="-336.1" y2="1949.5"/>
		<line class="st11" x1="-730.6" y1="1946.3" x2="-336.1" y2="1946.3"/>
		<line class="st11" x1="-730.6" y1="1943.1" x2="-336.1" y2="1943.1"/>
		<line class="st11" x1="-730.6" y1="1939.9" x2="-336.1" y2="1939.9"/>
		<line class="st11" x1="-730.6" y1="1936.7" x2="-336.1" y2="1936.7"/>
		<line class="st11" x1="-730.6" y1="1933.5" x2="-336.1" y2="1933.5"/>
		<line class="st11" x1="-730.6" y1="1930.3" x2="-336.1" y2="1930.3"/>
		<line class="st11" x1="-730.6" y1="1927.1" x2="-336.1" y2="1927.1"/>
		<line class="st11" x1="-730.6" y1="1923.9" x2="-336.1" y2="1923.9"/>
		<line class="st11" x1="-730.6" y1="1920.7" x2="-336.1" y2="1920.7"/>
		<line class="st11" x1="-730.6" y1="1917.5" x2="-336.1" y2="1917.5"/>
		<line class="st11" x1="-730.6" y1="1914.3" x2="-336.1" y2="1914.3"/>
		<line class="st11" x1="-730.6" y1="1911.1" x2="-336.1" y2="1911.1"/>
		<line class="st11" x1="-730.6" y1="1907.9" x2="-336.1" y2="1907.9"/>
		<line class="st11" x1="-730.6" y1="1904.7" x2="-336.1" y2="1904.7"/>
		<line class="st11" x1="-730.6" y1="1901.5" x2="-336.1" y2="1901.5"/>
		<line class="st11" x1="-730.6" y1="1898.2" x2="-336.1" y2="1898.2"/>
		<line class="st11" x1="-730.6" y1="1895" x2="-336.1" y2="1895"/>
		<line class="st11" x1="-730.6" y1="1891.8" x2="-336.1" y2="1891.8"/>
		<line class="st11" x1="-730.6" y1="1888.6" x2="-336.1" y2="1888.6"/>
		<line class="st11" x1="-730.6" y1="1885.4" x2="-336.1" y2="1885.4"/>
		<line class="st11" x1="-730.6" y1="1882.2" x2="-336.1" y2="1882.2"/>
		<line class="st11" x1="-730.6" y1="1879" x2="-336.1" y2="1879"/>
		<line class="st11" x1="-730.6" y1="1875.8" x2="-336.1" y2="1875.8"/>
		<line class="st11" x1="-730.6" y1="1872.6" x2="-336.1" y2="1872.6"/>
		<line class="st11" x1="-730.6" y1="1869.4" x2="-336.1" y2="1869.4"/>
		<line class="st11" x1="-730.6" y1="1866.2" x2="-336.1" y2="1866.2"/>
		<line class="st11" x1="-730.6" y1="1863" x2="-336.1" y2="1863"/>
		<line class="st11" x1="-730.6" y1="1859.8" x2="-336.1" y2="1859.8"/>
		<line class="st11" x1="-730.6" y1="1856.6" x2="-336.1" y2="1856.6"/>
		<line class="st11" x1="-730.6" y1="1853.4" x2="-336.1" y2="1853.4"/>
		<line class="st11" x1="-730.6" y1="1850.2" x2="-336.1" y2="1850.2"/>
		<line class="st11" x1="-730.6" y1="1847" x2="-336.1" y2="1847"/>
		<line class="st11" x1="-730.6" y1="1843.8" x2="-336.1" y2="1843.8"/>
		<line class="st11" x1="-730.6" y1="1840.6" x2="-336.1" y2="1840.6"/>
		<line class="st11" x1="-730.6" y1="1837.4" x2="-336.1" y2="1837.4"/>
		<line class="st11" x1="-730.6" y1="1834.2" x2="-336.1" y2="1834.2"/>
		<line class="st11" x1="-730.6" y1="1831" x2="-336.1" y2="1831"/>
		<line class="st11" x1="-730.6" y1="1827.8" x2="-336.1" y2="1827.8"/>
		<line class="st11" x1="-730.6" y1="1824.6" x2="-336.1" y2="1824.6"/>
		<line class="st11" x1="-730.6" y1="1821.3" x2="-336.1" y2="1821.3"/>
		<line class="st11" x1="-730.6" y1="1818.1" x2="-336.1" y2="1818.1"/>
		<line class="st11" x1="-730.6" y1="1814.9" x2="-336.1" y2="1814.9"/>
		<line class="st11" x1="-730.6" y1="1811.7" x2="-336.1" y2="1811.7"/>
		<line class="st11" x1="-730.6" y1="1808.5" x2="-336.1" y2="1808.5"/>
		<line class="st11" x1="-730.6" y1="1805.3" x2="-336.1" y2="1805.3"/>
		<line class="st11" x1="-730.6" y1="1802.1" x2="-336.1" y2="1802.1"/>
		<line class="st11" x1="-730.6" y1="1798.9" x2="-336.1" y2="1798.9"/>
		<line class="st11" x1="-730.6" y1="1795.7" x2="-336.1" y2="1795.7"/>
		<line class="st11" x1="-730.6" y1="1792.5" x2="-336.1" y2="1792.5"/>
		<line class="st11" x1="-730.6" y1="1789.3" x2="-336.1" y2="1789.3"/>
		<line class="st11" x1="-730.6" y1="1786.1" x2="-336.1" y2="1786.1"/>
		<line class="st11" x1="-730.6" y1="1782.9" x2="-336.1" y2="1782.9"/>
		<line class="st11" x1="-730.6" y1="1779.7" x2="-336.1" y2="1779.7"/>
		<line class="st11" x1="-730.6" y1="1776.5" x2="-336.1" y2="1776.5"/>
		<line class="st11" x1="-730.6" y1="1773.3" x2="-336.1" y2="1773.3"/>
		<line class="st11" x1="-730.6" y1="1770.1" x2="-336.1" y2="1770.1"/>
		<line class="st11" x1="-730.6" y1="1766.9" x2="-336.1" y2="1766.9"/>
		<line class="st11" x1="-730.6" y1="1763.7" x2="-336.1" y2="1763.7"/>
		<line class="st11" x1="-730.6" y1="1760.5" x2="-336.1" y2="1760.5"/>
	</g>
	<g>
		<path class="st12" d="M-481.3,1913.4c-12.2-15.3-30.9-25-52-25c-21.1,0-39.8,9.8-52,25c-9.1,11.4-14.5,25.8-14.5,41.5
			c0,5.1,0.6,10,1.7,14.8c4.5,19.9,18,36.4,36,45.1c8.7,4.2,18.5,6.6,28.9,6.6c10.4,0,20.1-2.4,28.9-6.6c18-8.7,31.4-25.2,36-45.1
			c1.1-4.8,1.7-9.7,1.7-14.8C-466.8,1939.2-472.2,1924.8-481.3,1913.4z"/>
		<g>
			<path class="st13" d="M-565.2,1785.3c-1.4-3.8-5.1-6.2-9.2-5.8c-12.7,1.1-40.4,4.3-56.8,12.9c-25.3,13.2-36.3,26-36.3,26
				l-5.6,6.3c61.1,39.2,90.4,85.6,91.8,84.1c10.8-11.2,25.4-18.6,41.8-20.1C-539.4,1888.6-539.1,1856.2-565.2,1785.3z"/>
			<path class="st13" d="M-420.7,1824.2c2.1-3.4,1.6-7.9-1.1-10.8c-8.8-9.3-28.5-28.9-45.5-36.4c-26.1-11.6-42.9-12.2-42.9-12.2
				l-8.5-0.4c7.4,72.2-10.5,124-8.5,124.2c15.5,1.4,30.4,8.3,41.8,20.1C-485.4,1908.8-459.8,1888.8-420.7,1824.2z"/>
			<path class="st13" d="M-360.9,1961.5c4-0.5,7.2-3.6,7.7-7.6c1.8-12.6,4.8-40.3,0.1-58.3c-7.2-27.6-17.3-41.2-17.3-41.2l-4.9-6.9
				c-51.8,50.9-103.5,69.1-102.4,70.8c8.5,13,12.5,28.9,10.3,45.2C-467.4,1963.6-435.8,1971.1-360.9,1961.5z"/>
			<path class="st13" d="M-431,2093.7c2.9,2.8,7.3,3.3,10.8,1.3c11-6.5,34.5-21.4,45.6-36.2c17.1-22.8,21.4-39.2,21.4-39.2l2.3-8.1
				c-72.1-8.8-118.6-37.9-119.2-35.9c-4.8,14.8-14.8,27.8-28.9,36.3C-499.1,2011.8-485.3,2041.2-431,2093.7z"/>
			<path class="st13" d="M-578.1,2121.4c-0.4,4,1.9,7.8,5.7,9.2c11.9,4.6,38.2,13.6,56.8,13.1c28.5-0.9,44-7.7,44-7.7l7.8-3.3
				c-38-61.9-44.3-116.3-46.2-115.6c-14.6,5.4-31,5.8-46.4,0C-556.5,2017.1-570.9,2046.2-578.1,2121.4z"/>
			<path class="st13" d="M-691.5,2023.6c-3.4,2.2-4.9,6.4-3.7,10.2c3.9,12.2,13.2,38.4,25.2,52.5c18.5,21.7,33.4,29.6,33.4,29.6
				l7.4,4.1c24.6-68.3,63.3-107.2,61.6-108.2c-13.3-8-23.8-20.6-28.9-36.3C-596.5,1975.5-628.2,1982.5-691.5,2023.6z"/>
			<path class="st13" d="M-685.7,1874.1c-3.8-1.3-8,0.2-10.3,3.5c-7.1,10.6-21.8,34.2-25.4,52.4c-5.5,28-2.3,44.6-2.3,44.6l1.5,8.3
				c68.8-23.3,123.3-17.3,123-19.3c-2-15.4,1.3-31.5,10.3-45.2C-588.9,1918.3-614.1,1897.9-685.7,1874.1z"/>
		</g>
	</g>
	<path class="st14" d="M-346,1749.3h-187.3h-187.3c-11,0-19.9,8.9-19.9,19.9v371.2c0,11,8.9,19.9,19.9,19.9h187.3H-346
		c11,0,19.9-8.9,19.9-19.9v-371.2C-326.1,1758.2-335,1749.3-346,1749.3z M-533.3,2152.1c-109,0-197.3-88.3-197.3-197.3
		s88.3-197.2,197.3-197.2s197.3,88.3,197.3,197.3C-336,2063.9-424.3,2152.1-533.3,2152.1z"/>
	<circle class="st15" cx="-533.3" cy="1954.8" r="197.3"/>
</g>
</svg>
