<?xml version="1.0" encoding="utf-8"?>
<!-- Generator: Adobe Illustrator 19.0.1, SVG Export Plug-In . SVG Version: 6.00 Build 0)  -->
<svg version="1.1" id="Слой_1" xmlns="http://www.w3.org/2000/svg" xmlns:xlink="http://www.w3.org/1999/xlink" x="0px" y="0px"
	 viewBox="-714 1766 470 470" style="enable-background:new -714 1766 470 470;" xml:space="preserve">
<style type="text/css">
	.st0{fill:#868686;}
	.st1{fill:#706F6F;}
	.st2{fill:#F6F1E8;}
	.st3{fill:#E7CAA1;}
	.st4{fill:#F3E9E4;}
	.st5{fill:#FBF7F1;}
	.st6{fill:#ECECEC;}
	.st7{fill:none;stroke:#B7B7B7;stroke-miterlimit:10;}
	.st8{fill:none;stroke:#706F6F;stroke-miterlimit:10;}
</style>
<g>
	<path class="st0" d="M-604.9,1877.9v251.8h251.8v-251.8H-604.9z M-436.8,2067.2h-84.4v-126.7h84.4V2067.2z"/>
	<g>
		<rect x="-521.2" y="1940.5" class="st1" width="84.4" height="126.7"/>
		<rect x="-491.8" y="1994.1" class="st2" width="12.8" height="7.9"/>
		<rect x="-489" y="1994.1" class="st3" width="6.6" height="7.9"/>
	</g>
	<polygon class="st4" points="-432.1,2061.9 -432.1,2074.8 -436.8,2074.8 -525.9,2074.8 -525.9,2071.2 -525.9,1952.1 -596.8,1952.1 
		-596.8,2071.2 -590.4,2071.2 -590.4,2074.8 -590.4,2113.6 -578.6,2113.6 -578.6,2121.3 -487.1,2121.3 -487.1,2113.6 -468.9,2113.6 
		-468.9,2121.3 -377.1,2121.3 -377.1,2113.6 -369.3,2113.6 -369.3,2074.8 -369.3,2061.9 	"/>
	<polygon class="st5" points="-525.9,1945.8 -525.9,1932.9 -521.2,1932.9 -432.1,1932.9 -432.1,1936.5 -432.1,2055.6 -361.2,2055.6 
		-361.2,1936.5 -367.6,1936.5 -367.6,1932.9 -367.6,1894 -379.4,1894 -379.4,1886.4 -470.9,1886.4 -470.9,1894 -489.1,1894 
		-489.1,1886.4 -580.9,1886.4 -580.9,1894 -588.7,1894 -588.7,1932.9 -588.7,1945.8 	"/>
	<g>
		<g>
			<rect x="-515.5" y="2007.4" class="st2" width="8" height="12.6"/>
			<rect x="-515.5" y="2010.8" class="st3" width="8" height="6.5"/>
		</g>
		<g>
			<rect x="-504.5" y="2007.4" class="st2" width="8" height="12.6"/>
			<rect x="-504.5" y="2010.8" class="st3" width="8" height="6.5"/>
		</g>
		<g>
			<rect x="-513.3" y="1947.7" class="st2" width="12.8" height="7.9"/>
			<rect x="-510.5" y="1947.7" class="st3" width="6.6" height="7.9"/>
		</g>
		<g>
			<rect x="-491.8" y="1947.7" class="st2" width="12.8" height="7.9"/>
			<rect x="-489" y="1947.7" class="st3" width="6.6" height="7.9"/>
		</g>
		<g>
			<rect x="-470.4" y="1947.7" class="st2" width="12.8" height="7.9"/>
			<rect x="-467.6" y="1947.7" class="st3" width="6.6" height="7.9"/>
		</g>
		<g>
			<rect x="-513.3" y="1959.3" class="st2" width="12.8" height="7.9"/>
			<rect x="-510.5" y="1959.3" class="st3" width="6.6" height="7.9"/>
		</g>
		<g>
			<rect x="-491.8" y="1959.3" class="st2" width="12.8" height="7.9"/>
			<rect x="-489" y="1959.3" class="st3" width="6.6" height="7.9"/>
		</g>
		<g>
			<rect x="-470.4" y="1959.3" class="st2" width="12.8" height="7.9"/>
			<rect x="-467.6" y="1959.3" class="st3" width="6.6" height="7.9"/>
		</g>
		<g>
			<rect x="-513.3" y="1970.9" class="st2" width="12.8" height="7.9"/>
			<rect x="-510.5" y="1970.9" class="st3" width="6.6" height="7.9"/>
		</g>
		<g>
			<rect x="-491.8" y="1970.9" class="st2" width="12.8" height="7.9"/>
			<rect x="-489" y="1970.9" class="st3" width="6.6" height="7.9"/>
		</g>
		<g>
			<rect x="-470.4" y="1970.9" class="st2" width="12.8" height="7.9"/>
			<rect x="-467.6" y="1970.9" class="st3" width="6.6" height="7.9"/>
		</g>
		<g>
			<rect x="-513.3" y="1994.1" class="st2" width="12.8" height="7.9"/>
			<rect x="-510.5" y="1994.1" class="st3" width="6.6" height="7.9"/>
		</g>
		<g>
			<rect x="-513.3" y="1982.5" class="st2" width="12.8" height="7.9"/>
			<rect x="-510.5" y="1982.5" class="st3" width="6.6" height="7.9"/>
		</g>
		<g>
			<rect x="-491.8" y="1982.5" class="st2" width="12.8" height="7.9"/>
			<rect x="-489" y="1982.5" class="st3" width="6.6" height="7.9"/>
		</g>
		<g>
			<rect x="-470.4" y="1982.5" class="st2" width="12.8" height="7.9"/>
			<rect x="-467.6" y="1982.5" class="st3" width="6.6" height="7.9"/>
		</g>
		<g>
			<rect x="-470.4" y="1994.1" class="st2" width="12.8" height="7.9"/>
			<rect x="-467.6" y="1994.1" class="st3" width="6.6" height="7.9"/>
		</g>
		<g>
			<rect x="-493.4" y="2007.4" class="st2" width="8" height="12.6"/>
			<rect x="-493.4" y="2010.8" class="st3" width="8" height="6.5"/>
		</g>
		<g>
			<rect x="-482.4" y="2007.4" class="st2" width="8" height="12.6"/>
			<rect x="-482.4" y="2010.8" class="st3" width="8" height="6.5"/>
		</g>
		<g>
			<rect x="-471.3" y="2007.4" class="st2" width="8" height="12.6"/>
			<rect x="-471.3" y="2010.8" class="st3" width="8" height="6.5"/>
		</g>
		<g>
			<rect x="-460.3" y="2007.4" class="st2" width="8" height="12.6"/>
			<rect x="-460.3" y="2010.8" class="st3" width="8" height="6.5"/>
		</g>
		<g>
			<rect x="-450" y="1984.5" class="st2" width="8" height="12.6"/>
			<rect x="-450" y="1987.9" class="st3" width="8" height="6.5"/>
		</g>
		<g>
			<rect x="-450" y="1954.6" class="st2" width="8" height="12.6"/>
			<rect x="-450" y="1958" class="st3" width="8" height="6.5"/>
		</g>
		<g>
			<rect x="-504.5" y="2027.5" class="st2" width="8" height="12.6"/>
			<rect x="-504.5" y="2030.9" class="st3" width="8" height="6.5"/>
		</g>
		<g>
			<rect x="-493.4" y="2027.5" class="st2" width="8" height="12.6"/>
			<rect x="-493.4" y="2030.9" class="st3" width="8" height="6.5"/>
		</g>
		<g>
			<rect x="-482.4" y="2027.5" class="st2" width="8" height="12.6"/>
			<rect x="-482.4" y="2030.9" class="st3" width="8" height="6.5"/>
		</g>
		<g>
			<rect x="-493.4" y="2049.7" class="st2" width="8" height="12.6"/>
			<rect x="-493.4" y="2053.1" class="st3" width="8" height="6.5"/>
		</g>
		<g>
			<rect x="-482.4" y="2049.7" class="st2" width="8" height="12.6"/>
			<rect x="-482.4" y="2053.1" class="st3" width="8" height="6.5"/>
		</g>
		<g>
			<rect x="-468.3" y="2057.8" class="st2" width="12.8" height="7.9"/>
			<rect x="-464.8" y="2057.8" class="st3" width="6.6" height="7.9"/>
		</g>
		<g>
			<rect x="-468.3" y="2047" class="st2" width="12.8" height="7.9"/>
			<rect x="-464.8" y="2047" class="st3" width="6.6" height="7.9"/>
		</g>
		<g>
			<rect x="-471.3" y="2027.5" class="st2" width="8" height="12.6"/>
			<rect x="-471.3" y="2030.9" class="st3" width="8" height="6.5"/>
		</g>
		<g>
			<rect x="-460.3" y="2027.5" class="st2" width="8" height="12.6"/>
			<rect x="-460.3" y="2030.9" class="st3" width="8" height="6.5"/>
		</g>
	</g>
	<path class="st1" d="M-614,1868.8v270h270v-270H-614L-614,1868.8z M-353.1,1893.9c-2.7,0.7-4.6,3.2-4.6,6.1s2,5.4,4.6,6.1v223.6
		H-479h-125.9v-223.6c2.7-0.7,4.6-3.2,4.6-6.1s-2-5.4-4.6-6.1V1878H-479h125.9V1893.9z"/>
</g>
<g>
	<path class="st6" d="M-714,1766v470h470v-470H-714z M-344,2138.8h-270v-270h270V2138.8z"/>
	<rect x="-630.1" y="1852.7" class="st7" width="302.2" height="302.2"/>
</g>
<line class="st8" x1="-604.9" y1="2129.7" x2="-353.1" y2="2129.7"/>
</svg>
