<?xml version="1.0" encoding="utf-8"?>
<!-- Generator: Adobe Illustrator 19.0.1, SVG Export Plug-In . SVG Version: 6.00 Build 0)  -->
<svg version="1.1" id="Слой_1" xmlns="http://www.w3.org/2000/svg" xmlns:xlink="http://www.w3.org/1999/xlink" x="0px" y="0px"
	 viewBox="-1135 3576.5 436.4 435.2" style="enable-background:new -1135 3576.5 436.4 435.2;" xml:space="preserve">
<style type="text/css">
	.st0{fill:#3C3C3B;}
	.st1{fill:#FFFFFF;}
	.st2{fill:#1D1D1B;}
	.st3{fill:#9D9D9C;}
	.st4{fill:#878787;}
	.st5{fill:#1D71B8;}
</style>
<g>
	<g>
		<rect x="-1135" y="3576.7" class="st0" width="436" height="416"/>
	</g>
	<g>
		<rect x="-1130.5" y="3609.7" class="st1" width="410" height="350"/>
		<path class="st2" d="M-720,3960.2h-411v-351h411V3960.2z M-1130,3959.2h409v-349h-409V3959.2z"/>
	</g>
	<g>
		
			<rect x="-710.3" y="3573.5" transform="matrix(-0.8379 -0.5459 0.5459 -0.8379 -3266.0334 6216.4126)" class="st3" width="1" height="39.4"/>
	</g>
	<g>
		
			<rect x="-729.5" y="3975.8" transform="matrix(-0.5459 -0.8379 0.8379 -0.5459 -4428.8599 5552.1299)" class="st3" width="39.4" height="1"/>
	</g>
	<g>
		<g>
			<polygon class="st4" points="-754.2,4011.7 -1093,4011.7 -1110.4,3978.5 -1100.2,3978.5 -1087,4001.7 -759.8,4001.7 
				-744.2,3978.5 -733.8,3978.8 			"/>
		</g>
	</g>
	<g>
		<polygon class="st5" points="-709.7,3938.7 -699,3959.7 -699,3614.7 -709.7,3633.7 		"/>
	</g>
	<g>
		<path d="M-720.2,3645h-101v-35.5h101C-720.2,3609.5-720.2,3645-720.2,3645z M-820.8,3644.5h100V3610h-100V3644.5z"/>
	</g>
	<g>
		<path d="M-720.2,3680h-101v-35.5h101C-720.2,3644.5-720.2,3680-720.2,3680z M-820.8,3679.5h100V3645h-100V3679.5z"/>
	</g>
	<g>
		<path d="M-720.2,3715h-101v-35.5h101C-720.2,3679.5-720.2,3715-720.2,3715z M-820.8,3714.5h100V3680h-100V3714.5z"/>
	</g>
	<g>
		<path d="M-720.2,3750h-101v-35.5h101C-720.2,3714.5-720.2,3750-720.2,3750z M-820.8,3749.5h100V3715h-100V3749.5z"/>
	</g>
	<g>
		<path d="M-720.2,3785h-101v-35.5h101C-720.2,3749.5-720.2,3785-720.2,3785z M-820.8,3784.5h100V3750h-100V3784.5z"/>
	</g>
	<g>
		<path d="M-720.2,3820h-101v-35.5h101C-720.2,3784.5-720.2,3820-720.2,3820z M-820.8,3819.5h100V3785h-100V3819.5z"/>
	</g>
	<g>
		<path d="M-720.2,3855h-101v-35.5h101C-720.2,3819.5-720.2,3855-720.2,3855z M-820.8,3854.5h100V3820h-100V3854.5z"/>
	</g>
	<g>
		<path d="M-720.2,3890h-101v-35.5h101C-720.2,3854.5-720.2,3890-720.2,3890z M-820.8,3889.5h100V3855h-100V3889.5z"/>
	</g>
	<g>
		<path d="M-720.2,3925h-101v-35.5h101C-720.2,3889.5-720.2,3925-720.2,3925z M-820.8,3924.5h100V3890h-100V3924.5z"/>
	</g>
	<g>
		<path d="M-720.2,3960h-101v-35.5h101C-720.2,3924.5-720.2,3960-720.2,3960z M-820.8,3959.5h100V3925h-100V3959.5z"/>
	</g>
	<g>
		<rect x="-821" y="3852.7" width="100.5" height="4"/>
	</g>
	<g>
		<rect x="-821" y="3747.7" width="100.5" height="4"/>
	</g>
	<g>
		<rect x="-823" y="3609.7" width="4" height="350"/>
	</g>
</g>
</svg>
