<?xml version="1.0" encoding="utf-8"?>
<!-- Generator: Adobe Illustrator 19.0.1, SVG Export Plug-In . SVG Version: 6.00 Build 0)  -->
<svg version="1.1" id="Слой_1" xmlns="http://www.w3.org/2000/svg" xmlns:xlink="http://www.w3.org/1999/xlink" x="0px" y="0px"
	 viewBox="-822.5 1928.8 254.5 144.4" style="enable-background:new -822.5 1928.8 254.5 144.4;" xml:space="preserve">
<style type="text/css">
	.st0{fill:#D4145A;}
	.st1{fill:#009FAF;}
	.st2{fill:none;stroke:#E5E5E5;stroke-miterlimit:10;}
</style>
<g>
	<path class="st0" d="M-709.5,1980.1c0,9.7-5.3,9.7-7,9.7c-5.5,0-6.6-5.3-6.6-9.7v-3.2h-8.3v3c0,10.9,5.4,17.2,14.7,17.2
		c9.8,0,15.4-6.3,15.4-17.4v-2.8h-8.3L-709.5,1980.1L-709.5,1980.1z"/>
	<polygon class="st0" points="-683.9,1996.6 -660.3,1996.6 -660.3,1989.1 -675.7,1989.1 -675.7,1976.9 -683.9,1976.9 	"/>
	<path class="st0" d="M-633.9,1976.9c-0.3,8.3-5,12.7-13.6,12.7c-0.9,0-1.9,0-2.9-0.1v-12.6h-8.2v19.4l1.6,0.2
		c2.6,0.3,5.5,0.4,8.7,0.4c7.5,0,13.5-2,17.2-5.7c3.5-3.5,5.5-8.4,5.7-14.3H-633.9z"/>
	<path class="st0" d="M-650.4,1961.9c0.9-0.1,2.1-0.2,3.7-0.2c4.3,0,7.6,1.1,9.8,3.3c2,2,3.1,5,3,8.8c0,0.3,0,0.6,0,0.9h8.4
		c0-0.3,0-0.7,0-1c0-6-1.9-10.8-5.6-14.3c-3.6-3.3-8.8-5-15.8-5c-3.4,0-6.8,0.3-10.2,0.8l-1.5,0.2v19.2h8.2V1961.9L-650.4,1961.9z"
		/>
	<polygon class="st0" points="-692.9,1976.9 -696.7,1976.9 -696.7,1996.9 -692.9,1996.9 -688.5,1996.9 -688.5,1976.9 	"/>
	<g>
		<rect x="-772.9" y="2006.1" class="st0" width="155.2" height="2.7"/>
	</g>
	<g>
		<path class="st1" d="M-760.3,1997.1h16.7c1.2,0.2,9.6-2.5,9.6-10.9c0-4.5-2.4-7.6-5.3-9.3l0.1-0.1h-21.1V1997.1z M-750,1981.1
			c2.8,0,7.5,0.7,7.5,5.2c0,4.3-4.1,5.2-7.5,5.2c-0.8,0-1.5,0-2.1,0v-10.4H-750z"/>
		<path class="st1" d="M-735.3,1967c0-3.3-1.3-7.8-3.7-9.6c-2.6-2.1-6-3-11-3c-3.2,0-6.6,0.3-8.9,0.8l-1.4,0.3v19.2h21.1
			C-736.7,1972.8-735.3,1970-735.3,1967z M-749.6,1971.7h-2.4v-10c0.7-0.1,1.4-0.1,2.3-0.1c6.1,0,6.1,4.8,6.1,5.9
			C-743.6,1970.1-745.9,1971.7-749.6,1971.7z"/>
		<rect x="-731.4" y="1954.7" class="st1" width="8.3" height="20"/>
		<rect x="-709.5" y="1954.7" class="st1" width="8.3" height="20"/>
		<rect x="-683.9" y="1954.7" class="st1" width="8.2" height="20"/>
		<polygon class="st1" points="-692.9,1954.7 -696.7,1954.7 -696.7,1974.7 -692.9,1974.7 -688.5,1974.7 -688.5,1954.7 		"/>
		<g>
			<path class="st1" d="M-756.1,2017.2l4.6,12.3c0.5,1.4,1,3,1.4,4.3h0.1c0.4-1.2,0.8-2.8,1.4-4.4l4.2-12.2h4.1l-5.9,14.8
				c-2.8,7.2-4.6,10.8-7.3,13.1c-1.9,1.6-3.8,2.3-4.7,2.5l-1-3.2c1-0.3,2.2-0.9,3.4-1.9c1.1-0.8,2.4-2.3,3.2-4.2
				c0.2-0.4,0.3-0.7,0.3-0.9c0-0.2-0.1-0.5-0.3-1l-7.8-19.2H-756.1z"/>
			<path class="st1" d="M-718.2,2027.4c0,7.7-5.4,11.1-10.5,11.1c-5.7,0-10.2-4.1-10.2-10.7c0-7,4.6-11.1,10.5-11.1
				C-722.3,2016.7-718.2,2021.1-718.2,2027.4z M-735,2027.6c0,4.6,2.7,8,6.4,8c3.7,0,6.4-3.4,6.4-8.1c0-3.5-1.8-8-6.3-8
				S-735,2023.7-735,2027.6z"/>
			<path class="st1" d="M-695.6,2032.3c0,2.2,0,4.1,0.2,5.7h-3.4l-0.2-3.4h-0.1c-1,1.7-3.2,3.9-7,3.9c-3.3,0-7.3-1.8-7.3-9.1v-12.2
				h3.9v11.5c0,4,1.2,6.6,4.7,6.6c2.6,0,4.4-1.8,5.1-3.4c0.2-0.6,0.4-1.2,0.4-1.9v-12.8h3.9v15.1H-695.6z"/>
			<path class="st1" d="M-689.2,2023.7c0-2.5,0-4.6-0.2-6.5h3.4l0.1,4.1h0.2c1-2.8,3.3-4.6,5.9-4.6c0.4,0,0.7,0,1.1,0.1v3.6
				c-0.4-0.1-0.8-0.1-1.3-0.1c-2.7,0-4.6,2-5.2,4.9c-0.1,0.5-0.2,1.1-0.2,1.8v11h-3.8V2023.7z"/>
			<path class="st1" d="M-665.6,2024c0-2.7-0.1-4.8-0.2-6.8h3.5l0.2,3.6h0.1c1.6-2.5,4.1-4.1,7.5-4.1c5.1,0,9,4.3,9,10.6
				c0,7.5-4.6,11.2-9.6,11.2c-2.8,0-5.3-1.2-6.5-3.3h-0.1v11.3h-3.8L-665.6,2024L-665.6,2024z M-661.8,2029.5c0,0.6,0.1,1.1,0.2,1.6
				c0.7,2.6,3,4.4,5.8,4.4c4.1,0,6.4-3.3,6.4-8.1c0-4.2-2.2-7.8-6.3-7.8c-2.6,0-5.1,1.9-5.8,4.7c-0.1,0.5-0.3,1-0.3,1.6
				L-661.8,2029.5L-661.8,2029.5z"/>
			<path class="st1" d="M-625.6,2037.3c-1,0.5-3.2,1.2-6.1,1.2c-6.4,0-10.5-4.3-10.5-10.6c0-6.4,4.5-11.1,11.4-11.1
				c2.3,0,4.3,0.6,5.3,1.1l-0.9,2.9c-0.9-0.5-2.4-1-4.5-1c-4.9,0-7.5,3.5-7.5,7.9c0,4.8,3.2,7.8,7.4,7.8c2.2,0,3.6-0.6,4.7-1
				L-625.6,2037.3z"/>
		</g>
	</g>
	<rect x="-822" y="1929.3" class="st2" width="253.5" height="143.4"/>
</g>
</svg>
