<?xml version="1.0" encoding="utf-8"?>
<!-- Generator: Adobe Illustrator 19.0.1, SVG Export Plug-In . SVG Version: 6.00 Build 0)  -->
<svg version="1.1" id="Слой_1" xmlns="http://www.w3.org/2000/svg" xmlns:xlink="http://www.w3.org/1999/xlink" x="0px" y="0px"
	 viewBox="-450.7 1733.1 276 100.8" style="enable-background:new -450.7 1733.1 276 100.8;" xml:space="preserve">
<style type="text/css">
	.st0{fill:#FFFFFF;}
	.st1{fill:#1D1D1B;}
	.st2{opacity:0.9;fill:#DADADA;enable-background:new    ;}
	.st3{fill:#FFE6C5;}
	.st4{fill:#1D1D1B;stroke:#FFFFFF;stroke-miterlimit:10;}
	.st5{fill:#706F6F;}
	.st6{fill:none;stroke:#1D1D1B;stroke-miterlimit:10;}
</style>
<g>
	<g>
		<path class="st0" d="M-277.8,1815.4l-7.1-12.7c-0.1-0.2-0.2-0.5-0.2-0.7v-65"/>
		<path class="st1" d="M-279.9,1814.8l-6.6-11.7c-0.1-0.2-0.2-0.5-0.2-0.7v-63.9c0-0.8,0.7-1.5,1.5-1.5l0,0c0.8,0,1.5,0.7,1.5,1.5
			v63.1c0,0.3,0.1,0.5,0.2,0.7l6.2,11c0.4,0.7,0.2,1.6-0.6,2l0,0C-278.6,1815.8-279.5,1815.6-279.9,1814.8z"/>
	</g>
	<g>
		<path class="st0" d="M-243.5,1815.4l7.1-12.7c0.1-0.2,0.2-0.5,0.2-0.7v-65"/>
		<path class="st1" d="M-243.5,1815.4L-243.5,1815.4c-0.7-0.4-1-1.3-0.6-2l6.2-11c0.1-0.2,0.2-0.5,0.2-0.7v-63.1
			c0-0.8,0.7-1.5,1.5-1.5l0,0c0.8,0,1.5,0.7,1.5,1.5v63.9c0,0.3-0.1,0.5-0.2,0.7l-6.6,11.7C-241.9,1815.6-242.8,1815.8-243.5,1815.4
			z"/>
	</g>
	<g>
		<polyline class="st0" points="-260.7,1815.4 -260.7,1802.4 -260.7,1737 		"/>
		<path class="st1" d="M-260.7,1815.4L-260.7,1815.4c-0.8,0-1.5-0.7-1.5-1.5v-75.4c0-0.8,0.7-1.5,1.5-1.5l0,0c0.8,0,1.5,0.7,1.5,1.5
			v75.4C-259.2,1814.7-259.8,1815.4-260.7,1815.4z"/>
	</g>
	<rect x="-293.3" y="1739.4" class="st2" width="71.2" height="65"/>
	<rect x="-305" y="1733.1" class="st3" width="12.7" height="73.3"/>
	<rect x="-303.7" y="1812.4" class="st4" width="86" height="21"/>
	<rect x="-378.3" y="1822.9" class="st5" width="7" height="10.5"/>
	<rect x="-411.3" y="1822.9" class="st5" width="7" height="10.5"/>
	<polygon class="st5" points="-260.7,1828.2 -306,1828.2 -306,1833.4 -260.7,1833.4 -215.3,1833.4 -215.3,1828.2 	"/>
	<line class="st6" x1="-450.7" y1="1833.4" x2="-174.7" y2="1833.4"/>
</g>
</svg>
