<?xml version="1.0" encoding="utf-8"?>
<!-- Generator: Adobe Illustrator 19.0.1, SVG Export Plug-In . SVG Version: 6.00 Build 0)  -->
<svg version="1.1" id="Слой_1" xmlns="http://www.w3.org/2000/svg" xmlns:xlink="http://www.w3.org/1999/xlink" x="0px" y="0px"
	 viewBox="-631 1952.4 636.7 96.6" style="enable-background:new -631 1952.4 636.7 96.6;" xml:space="preserve">
<style type="text/css">
	.st0{fill:#3C3C3B;}
	.st1{fill:none;stroke:#878787;stroke-width:4;stroke-miterlimit:10;}
	.st2{fill:#878787;}
</style>
<g>
	<g>
		<g>
			<rect x="-492.9" y="1999.5" class="st0" width="18.1" height="39.6"/>
			<rect x="-529" y="1999.5" class="st0" width="18.1" height="39.6"/>
			<path d="M-481.3,1999.5h-5.3V1955c0-1.5,1.2-2.6,2.6-2.6l0,0c1.5,0,2.6,1.2,2.6,2.6L-481.3,1999.5L-481.3,1999.5z"/>
			<path d="M-517.3,1999.5h-5.3V1955c0-1.5,1.2-2.6,2.6-2.6l0,0c1.5,0,2.6,1.2,2.6,2.6L-517.3,1999.5L-517.3,1999.5z"/>
		</g>
		<g>
			<rect x="-150.4" y="1999.5" class="st0" width="18.1" height="39.6"/>
			<rect x="-114.4" y="1999.5" class="st0" width="18.1" height="39.6"/>
			<path d="M-144.1,1999.5h5.3V1955c0-1.5-1.2-2.6-2.6-2.6l0,0c-1.5,0-2.6,1.2-2.6,2.6v44.5H-144.1z"/>
			<path d="M-108.1,1999.5h5.3V1955c0-1.5-1.2-2.6-2.6-2.6l0,0c-1.5,0-2.6,1.2-2.6,2.6v44.5H-108.1z"/>
		</g>
	</g>
	<line class="st1" x1="-362.3" y1="2039.1" x2="-263" y2="2039.1"/>
	<rect x="-631" y="2039.1" class="st2" width="636.7" height="9.9"/>
</g>
</svg>
