<?xml version="1.0" encoding="utf-8"?>
<!-- Generator: Adobe Illustrator 19.0.1, SVG Export Plug-In . SVG Version: 6.00 Build 0)  -->
<svg version="1.1" id="Слой_1" xmlns="http://www.w3.org/2000/svg" xmlns:xlink="http://www.w3.org/1999/xlink" x="0px" y="0px"
	 viewBox="-1136.7 3881.8 367.5 86.5" style="enable-background:new -1136.7 3881.8 367.5 86.5;" xml:space="preserve">
<style type="text/css">
	.st0{fill:#3A3839;}
	.st1{fill:#FDD570;}
	.st2{fill:#201B1C;}
	.st3{fill:#110E0F;}
</style>
<g>
	<path class="st0" d="M-773.3,3921.7h4.1V3885h-367.4v36.7h4.1c0.9,0,1.5,0.6,1.5,1.5v5.5c0,0.9-0.6,1.5-1.5,1.5h-4.1v9.5h4.1
		c0.9,0,1.5,0.6,1.5,1.5v5.5c0,0.9-0.6,1.5-1.5,1.5h-4.1v20.1h196.2v-6.2c0-1.3,1-2.3,2.3-2.3c1.3,0,2.3,1,2.3,2.3v6.2h166.7v-20.1
		h-4.1c-0.9,0-1.5-0.6-1.5-1.5v-5.5c0-0.9,0.6-1.5,1.5-1.5h4.1v-9.5h-4.1c-0.9,0-1.5-0.6-1.5-1.5v-5.5
		C-775,3922.3-774.2,3921.7-773.3,3921.7z"/>
	<rect x="-1136.7" y="3962.9" class="st1" width="196.2" height="5.5"/>
	<rect x="-936" y="3962.9" class="st1" width="166.7" height="5.5"/>
	<rect x="-1133.2" y="3881.8" class="st2" width="9.1" height="1.1"/>
	<path class="st3" d="M-773.5,3884.9v16.5c-5.5,2.5-8.9,8-8.8,14.1l0.6,37.2h-343.9l0.6-37.2c0.1-6-3.3-11.5-8.8-14.1v-16.5h0.3
		v-1.9h9.1v1.9h341.1v-1.9h9.1v1.9H-773.5z"/>
	<rect x="-782.9" y="3881.8" class="st2" width="9.1" height="1.1"/>
</g>
</svg>
