<?xml version="1.0" encoding="utf-8"?>
<!-- Generator: Adobe Illustrator 19.0.1, SVG Export Plug-In . SVG Version: 6.00 Build 0)  -->
<svg version="1.1" id="Слой_1" xmlns="http://www.w3.org/2000/svg" xmlns:xlink="http://www.w3.org/1999/xlink" x="0px" y="0px"
	 viewBox="-823 1875.3 251.8 251.7" style="enable-background:new -823 1875.3 251.8 251.7;" xml:space="preserve">
<style type="text/css">
	.st0{fill:#05414F;}
	.st1{fill:#C6C6C6;}
	.st2{fill:#EDEDED;}
	.st3{fill:#F39200;}
</style>
<g>
	<path class="st0" d="M-571.2,1903.4c-2.5,0-4.6-2.7-4.6-6.1s2.1-6.1,4.6-6.1l0,0v-15.9H-823v15.9c2.5,0,4.6,2.7,4.6,6.1
		s-2.1,6.1-4.6,6.1V2127h251.8V1903.4L-571.2,1903.4z"/>
	<path class="st1" d="M-582.1,1955.2v92c0,3.7-3,6.7-6.7,6.7l0,0c-3.7,0-6.7,3-6.7,6.7v39.1c0,5.6-4.5,10.1-10.1,10.1h-183
		c-5.6,0-10.1-4.5-10.1-10.1v-39.1c0-3.7-3-6.7-6.7-6.7l0,0c-3.7,0-6.7-3-6.7-6.7v-92c0-3.7,3-6.7,6.7-6.7l0,0c3.7,0,6.7-3,6.7-6.7
		v-39.2c0-5.6,4.5-10.1,10.1-10.1h183.1c5.6,0,10.1,4.5,10.1,10.1v39.1c0,3.7,3,6.7,6.7,6.7l0,0
		C-585.1,1948.5-582.1,1951.4-582.1,1955.2z"/>
	<path class="st2" d="M-611.5,2099.4h-171.2c-6,0-10.9-4.9-10.9-10.9v-174.6c0-6,4.9-10.9,10.9-10.9h171.1c6,0,10.9,4.9,10.9,10.9
		v174.6C-600.6,2094.5-605.5,2099.4-611.5,2099.4z"/>
	<circle class="st3" cx="-815.7" cy="1882.6" r="3.6"/>
</g>
<line class="st0" x1="-823" y1="2127" x2="-571.2" y2="2127"/>
</svg>
